<?xml version="1.0" standalone="no"?>
<!DOCTYPE svg PUBLIC "-//W3C//DTD SVG 20010904//EN"
 "http://www.w3.org/TR/2001/REC-SVG-20010904/DTD/svg10.dtd">
<svg version="1.0" xmlns="http://www.w3.org/2000/svg"
 width="1024.000000pt" height="1024.000000pt" viewBox="0 0 1024.000000 1024.000000"
 preserveAspectRatio="xMidYMid meet">

<g transform="translate(0.000000,1024.000000) scale(0.100000,-0.100000)"
fill="#000000" stroke="none">
<path d="M4535 9769 c-557 -44 -913 -190 -991 -406 -36 -101 1 -210 105 -306
60 -55 169 -124 318 -202 39 -20 89 -52 110 -72 l38 -34 -60 6 c-33 3 -121 13
-195 21 -74 8 -214 17 -310 20 l-175 6 70 -69 c86 -83 179 -162 309 -262 l98
-76 -63 -7 c-129 -13 -500 -110 -748 -196 l-55 -18 297 -150 296 -149 -81 -82
c-45 -45 -80 -85 -77 -88 3 -2 55 -17 115 -33 l109 -28 6 -290 c5 -240 9 -306
27 -389 18 -83 20 -111 12 -165 -13 -87 -12 -260 1 -340 16 -101 63 -229 118
-322 61 -104 206 -254 338 -353 l92 -68 -28 -36 c-16 -20 -45 -51 -64 -69
l-35 -34 -25 55 c-78 172 -219 327 -378 416 -72 40 -209 86 -329 111 -254 51
-665 68 -791 32 -142 -40 -210 -104 -217 -203 -12 -164 154 -318 453 -422 55
-19 117 -37 138 -41 20 -4 37 -10 37 -14 0 -5 -16 -24 -36 -43 -107 -101 -102
-281 9 -358 70 -48 130 -63 247 -62 58 0 114 2 125 3 15 2 20 -5 25 -34 6 -32
15 -50 55 -104 7 -11 -21 -43 -119 -136 -236 -224 -316 -368 -316 -566 0 -82
22 -176 55 -242 14 -27 25 -51 25 -53 0 -2 -21 -12 -47 -22 -98 -37 -190 -112
-239 -193 -10 -18 -22 -32 -26 -32 -19 0 -127 54 -188 95 -184 122 -298 328
-308 555 -2 61 1 129 7 162 l12 57 62 -34 c61 -33 150 -66 216 -80 30 -6 33
-5 28 11 -72 223 -103 419 -92 589 11 183 49 366 101 482 l23 53 -81 -41
c-389 -196 -731 -574 -817 -904 -12 -43 -21 -84 -21 -91 0 -8 33 1 94 27 98
41 132 48 123 26 -37 -96 -44 -388 -13 -522 24 -108 76 -231 134 -318 61 -95
206 -243 295 -305 94 -65 234 -134 323 -161 l72 -21 23 -58 c16 -41 41 -76 89
-123 l66 -66 -49 -17 c-149 -53 -198 -203 -116 -356 56 -106 161 -187 305
-236 66 -23 102 -28 214 -32 151 -5 248 12 352 62 l53 25 25 -24 c48 -46 88
-55 245 -55 80 0 145 -2 145 -5 0 -3 -13 -29 -29 -58 -41 -73 -137 -286 -172
-383 -30 -81 -30 -82 -70 -88 -57 -9 -158 -45 -199 -71 -19 -13 -50 -39 -69
-59 -28 -29 -35 -45 -39 -89 -3 -36 1 -63 11 -84 17 -32 91 -103 107 -103 6 0
8 -20 4 -52 -15 -129 56 -221 184 -243 98 -16 182 36 233 143 101 215 121 252
133 252 10 0 15 -23 18 -92 3 -75 8 -102 28 -138 71 -128 249 -148 351 -38 34
36 38 37 69 27 51 -18 159 -5 225 28 l57 28 33 -30 c41 -39 94 -55 181 -55
124 0 264 49 410 145 l85 55 34 -35 c45 -45 127 -70 204 -62 31 3 110 12 176
21 66 9 181 20 256 25 85 6 147 15 165 24 71 37 124 126 124 205 0 83 -76 168
-162 179 -21 3 -38 7 -38 9 0 2 17 19 38 38 85 77 137 215 113 296 -20 67 -75
118 -151 140 -23 7 -20 10 35 36 l60 29 475 5 c456 5 476 6 510 26 76 44 96
114 88 297 -5 112 -19 152 -65 183 -24 16 -51 19 -190 22 l-163 4 0 457 0 458
-23 34 c-36 54 -66 64 -210 67 l-128 4 3 251 4 252 51 150 c58 169 102 368
110 496 l6 87 33 -14 c63 -26 151 -12 204 33 18 14 45 50 62 79 29 53 30 53
56 40 63 -32 166 -56 242 -56 188 0 310 85 327 230 8 70 -2 110 -47 179 l-40
61 59 0 c195 0 460 132 525 262 37 74 37 159 -2 216 -46 69 -137 121 -247 141
l-40 7 55 24 c145 64 273 148 386 253 203 190 302 466 208 584 -86 108 -213
107 -543 -4 -505 -170 -928 -398 -1152 -622 -130 -130 -165 -193 -214 -384
-40 -156 -120 -367 -140 -367 -2 0 -32 21 -67 48 -35 26 -83 58 -108 71 l-46
24 1 86 c0 78 -3 93 -33 153 -22 45 -52 84 -93 123 -34 31 -60 58 -58 60 2 1
33 20 69 40 37 22 102 75 150 124 139 140 204 295 204 491 1 176 -44 299 -146
404 l-59 61 15 55 c40 143 104 480 131 684 l7 48 -127 -66 c-70 -36 -128 -66
-129 -66 0 0 -2 129 -4 288 -1 158 -6 311 -10 340 l-7 52 -120 -101 c-66 -55
-158 -126 -203 -156 l-84 -56 -129 129 -129 129 85 26 c150 47 269 113 356
198 62 61 81 88 99 136 74 201 -107 399 -470 513 -307 97 -833 144 -1245 111z
m517 -110 c838 -57 1269 -303 997 -569 -70 -69 -195 -124 -399 -175 l-64 -17
-53 59 c-29 32 -52 61 -53 64 0 3 42 14 93 24 244 46 387 117 387 191 0 44
-29 76 -107 117 -162 84 -459 147 -833 178 -425 34 -1013 -59 -1141 -181 -21
-20 -39 -44 -39 -52 0 -34 48 -73 145 -119 207 -99 559 -164 998 -185 125 -6
147 -9 147 -23 0 -9 3 -40 7 -70 l6 -54 -199 6 c-226 7 -357 19 -527 48 -458
77 -747 229 -747 394 0 48 19 82 75 134 180 166 760 268 1307 230z m-72 -249
c184 -11 273 -22 435 -51 119 -21 348 -89 380 -112 18 -14 13 -17 -64 -41 -87
-27 -226 -53 -322 -58 -52 -3 -59 0 -110 38 -49 38 -184 124 -193 124 -2 0 -2
-17 0 -37 2 -21 5 -64 8 -95 l5 -58 -112 0 c-274 0 -648 56 -876 132 -107 35
-106 35 19 73 164 49 362 81 545 88 39 2 81 4 95 5 14 1 99 -3 190 -8z m174
-743 c5 -37 7 -69 4 -72 -4 -4 -326 130 -337 141 -3 2 69 3 160 2 l164 -3 9
-68z m591 -743 c38 -18 81 -74 95 -125 24 -83 5 -243 -56 -457 -25 -87 -26
-102 -16 -157 42 -238 58 -315 62 -315 3 0 18 26 35 58 93 179 260 374 364
425 172 84 325 -40 339 -274 9 -163 -51 -313 -177 -439 -78 -78 -167 -126
-262 -142 -88 -15 -141 1 -195 57 l-41 43 -23 -82 c-53 -197 -135 -331 -297
-487 -129 -124 -227 -193 -366 -259 -235 -111 -414 -125 -640 -50 -253 85
-477 247 -603 435 -117 178 -156 373 -123 636 9 77 8 96 -11 175 -22 90 -40
304 -32 380 l4 42 49 -31 c28 -17 52 -34 55 -38 2 -4 -3 -49 -12 -101 -34
-196 9 -401 108 -514 36 -41 94 -80 132 -90 30 -7 30 -9 15 -70 -14 -55 -1
-108 37 -153 38 -46 84 -69 160 -82 85 -14 133 -3 189 43 l39 33 -95 6 c-140
8 -219 54 -219 127 0 33 37 62 79 62 81 0 154 55 167 126 9 47 -3 138 -21 175
-9 16 -17 29 -20 29 -2 0 -9 -26 -15 -57 -20 -99 -42 -137 -92 -162 -58 -27
-144 -28 -197 -2 -101 52 -171 198 -171 359 0 74 21 183 36 189 7 3 29 -7 48
-22 l34 -26 -5 -98 c-5 -83 -2 -110 16 -170 25 -82 61 -128 109 -137 28 -6 37
-2 65 28 52 55 68 133 47 223 -5 22 -7 41 -5 43 2 3 27 -10 56 -28 l52 -31 -7
72 c-12 122 -36 263 -45 272 -6 6 -12 -10 -16 -39 -12 -94 -16 -104 -36 -104
-10 0 -82 62 -167 143 -165 159 -216 192 -285 185 -23 -3 -50 -8 -59 -12 -16
-7 -18 -2 -17 45 0 30 6 86 12 124 l12 70 98 34 c54 18 100 32 102 29 2 -2 -2
-28 -10 -58 -7 -30 -18 -90 -23 -133 -7 -68 -6 -77 7 -72 8 3 74 39 146 79
159 90 355 189 362 183 2 -3 -3 -20 -13 -38 -23 -46 -105 -262 -100 -266 2 -2
95 44 207 103 267 139 480 246 484 242 2 -2 -18 -57 -44 -123 -27 -66 -48
-121 -46 -123 1 -1 132 63 290 143 158 80 302 149 319 154 48 14 95 12 131 -5z
m2868 -805 c54 -66 -45 -266 -203 -412 -155 -144 -441 -295 -755 -398 l-100
-33 85 -8 c379 -33 567 -77 600 -137 49 -92 -60 -199 -255 -250 -175 -46 -338
-50 -535 -11 -52 10 -96 17 -97 16 -1 -1 50 -42 114 -92 213 -163 283 -244
267 -308 -9 -36 -65 -83 -116 -97 -114 -30 -246 15 -416 143 -56 43 -104 78
-107 78 -2 0 4 -24 15 -54 27 -78 35 -160 20 -197 -23 -55 -102 -75 -174 -45
-31 13 -35 20 -45 73 -17 90 -50 183 -88 244 l-34 56 40 63 c52 81 93 188 132
347 45 184 89 266 207 387 166 169 517 375 892 524 347 137 506 169 553 111z
m-2504 -838 c103 -39 181 -128 181 -205 -1 -55 -22 -99 -114 -234 -108 -160
-129 -204 -130 -277 l-1 -60 -188 4 -188 4 6 -44 c6 -39 26 -163 42 -256 3
-20 0 -39 -8 -49 -7 -9 -87 -65 -177 -125 -241 -160 -341 -239 -439 -344 -48
-52 -89 -93 -90 -91 -8 8 54 152 119 276 92 176 216 362 320 479 127 143 225
269 270 346 137 235 157 264 247 357 l93 98 -50 0 c-28 0 -72 -7 -98 -16 -25
-8 -48 -14 -50 -11 -2 2 14 28 36 57 22 30 40 57 40 62 0 4 9 17 20 28 26 26
93 27 159 1z m-2949 -226 c358 -45 543 -131 702 -325 40 -50 114 -182 128
-229 8 -28 5 -32 -46 -72 -82 -63 -213 -205 -279 -303 -44 -64 -71 -94 -99
-108 l-40 -20 -18 22 c-37 46 -8 125 75 202 28 26 49 49 47 51 -3 3 -50 -9
-105 -24 -150 -44 -261 -62 -340 -57 -167 11 -202 94 -87 207 66 65 159 116
284 157 112 36 111 37 -32 48 -210 16 -397 59 -550 125 -114 49 -176 89 -234
151 -90 96 -51 161 114 190 72 12 322 4 480 -15z m2506 -150 c11 -46 -6 -92
-75 -196 -149 -226 -369 -431 -558 -521 -64 -30 -152 -31 -183 -3 -39 36 -54
76 -54 152 0 64 16 123 34 123 3 0 21 -21 39 -46 l32 -46 55 4 c156 13 414
208 596 451 44 59 86 107 94 107 7 0 16 -11 20 -25z m755 -97 c92 -45 124 -69
107 -79 -7 -5 -27 -9 -44 -9 -17 0 -86 -15 -155 -34 -68 -19 -125 -33 -127
-31 -2 1 25 44 59 94 37 55 68 91 79 91 9 0 46 -14 81 -32z m-1942 -212 c42
-24 101 -54 133 -67 l56 -24 -24 -60 c-54 -131 -106 -334 -129 -497 -3 -27
-10 -48 -14 -48 -10 0 -119 229 -137 287 -12 40 -11 44 15 80 38 51 59 68 104
83 33 10 36 14 25 28 -16 19 -153 83 -230 108 -32 10 -58 21 -58 25 0 13 150
129 167 129 9 0 50 -20 92 -44z m2197 -10 c120 -125 132 -393 35 -762 -51
-193 -206 -511 -394 -812 -68 -107 -81 -107 -113 3 -34 118 -97 235 -169 313
-56 60 -61 70 -53 92 18 45 4 163 -26 224 -34 69 -105 149 -162 182 -24 14
-44 31 -44 37 0 7 50 65 111 129 149 159 300 258 533 353 69 28 75 33 53 39
-14 3 -61 1 -104 -4 -81 -11 -217 -68 -306 -128 -68 -46 -67 -46 -62 -15 2 15
7 49 10 76 l6 47 90 0 89 0 0 68 c0 37 4 72 8 79 7 11 245 93 327 112 22 5 60
9 84 10 40 1 49 -3 87 -43z m-2444 -197 l41 -21 -55 -56 c-58 -60 -98 -122
-118 -184 -6 -21 -15 -38 -19 -38 -4 0 -34 9 -67 21 -40 13 -78 19 -117 17
-31 -2 -57 -1 -57 1 0 8 75 97 135 160 111 118 174 142 257 100z m1642 1 c21
-8 26 -16 26 -42 0 -42 -8 -53 -43 -62 -47 -11 -67 8 -67 64 0 49 1 50 29 50
16 0 41 -4 55 -10z m-3511 -210 c-24 -125 -6 -412 32 -512 11 -29 -17 -22 -61
15 -52 44 -100 77 -112 77 -17 0 -64 -121 -84 -218 -28 -134 -21 -310 16 -435
28 -93 78 -199 120 -257 86 -115 235 -233 372 -296 l76 -35 -6 -52 c-4 -28 -9
-53 -10 -54 -5 -5 -141 44 -186 67 -149 75 -311 227 -389 364 -97 170 -143
381 -121 557 10 84 56 252 85 309 32 64 31 67 -32 59 -32 -4 -78 -12 -103 -17
-24 -6 -46 -9 -48 -7 -9 8 122 185 221 298 54 62 235 222 242 215 2 -2 -4 -37
-12 -78z m2369 -33 c9 -12 37 -33 64 -46 57 -29 168 -34 247 -12 26 8 50 12
52 9 9 -8 -53 -97 -80 -114 -43 -28 -138 -24 -206 7 -66 31 -100 74 -107 135
-5 49 7 57 30 21z m-386 -145 c65 -145 71 -162 55 -162 -11 0 -206 178 -206
188 0 15 70 121 79 119 5 -2 37 -67 72 -145z m1459 91 c-31 -48 -112 -146
-152 -185 -38 -37 -39 -38 -96 -30 l-58 7 48 46 c47 46 249 189 266 189 5 0 1
-12 -8 -27z m-1769 -92 c39 -20 96 -67 159 -131 84 -84 96 -100 79 -106 -10
-3 -53 -22 -94 -42 -58 -27 -97 -57 -175 -132 l-100 -97 -35 15 c-81 33 -254
64 -375 65 l-120 2 -3 29 c-7 58 82 116 190 124 77 5 167 -10 234 -39 25 -12
48 -19 50 -16 8 7 -88 87 -129 109 -21 10 -76 24 -123 30 -82 11 -83 12 -66
31 26 29 88 58 146 67 109 17 234 -24 327 -107 53 -48 55 -37 6 35 -49 73
-123 119 -231 143 -65 14 -62 25 11 45 80 23 179 13 249 -25z m1640 -252 c109
-41 194 -150 194 -249 0 -26 -5 -51 -12 -58 -20 -20 -56 -14 -75 14 -90 128
-138 168 -247 203 -34 12 -92 25 -130 30 -37 5 -71 12 -73 15 -3 3 7 11 23 17
16 6 49 20 74 30 64 26 174 25 246 -2z m-1007 -138 c51 -17 221 -95 378 -173
223 -111 282 -144 278 -157 -26 -85 -47 -192 -52 -268 l-6 -93 -100 0 c-84 0
-105 -3 -133 -21 -19 -11 -37 -32 -40 -45 -4 -14 -12 -23 -18 -21 -6 3 -69 48
-141 102 -252 188 -542 375 -717 461 -43 21 -78 42 -78 45 0 37 153 151 248
185 59 22 80 24 177 21 91 -3 126 -9 204 -36z m853 -34 c87 -42 151 -105 169
-165 17 -58 8 -72 -43 -72 -46 0 -268 73 -428 140 -134 57 -132 55 -91 90 45
39 95 49 217 47 94 -2 106 -5 176 -40z m-2219 -99 c18 -13 34 -24 36 -25 2 -1
-16 -24 -39 -50 -54 -61 -87 -127 -115 -228 l-22 -80 -14 30 c-23 53 -16 152
14 219 25 53 92 156 103 156 3 0 19 -10 37 -22z m327 -35 c3 -3 -6 -12 -20
-21 -51 -32 -123 -116 -147 -170 -32 -73 -40 -184 -20 -262 9 -30 13 -57 11
-59 -2 -2 -30 0 -61 5 l-58 9 -18 50 c-23 67 -18 189 12 268 23 59 115 171
156 188 20 9 135 2 145 -8z m316 -118 c41 -14 103 -39 137 -56 88 -44 313
-179 350 -211 l32 -26 -23 -25 c-13 -13 -46 -37 -75 -53 l-52 -29 -285 -5
c-275 -5 -287 -6 -331 -29 l-47 -23 -39 21 c-33 19 -40 30 -51 74 -39 167 18
319 138 371 55 24 159 20 246 -9z m1979 -49 c59 -62 104 -141 146 -258 22 -63
26 -84 17 -90 -7 -4 -56 -8 -108 -8 -76 0 -104 -4 -135 -20 -21 -11 -41 -18
-43 -15 -3 2 -15 57 -28 122 -14 65 -31 137 -40 160 l-16 41 63 61 c35 33 71
60 79 61 8 0 37 -24 65 -54z m-318 -68 c18 -15 49 -119 77 -258 36 -180 51
-279 43 -286 -3 -4 -17 -4 -30 0 -20 5 -26 16 -40 81 -32 145 -65 175 -189
175 -42 0 -80 4 -83 10 -13 21 26 252 51 302 l14 27 72 -21 c40 -11 78 -25 85
-30z m-2213 -433 c155 -33 246 -115 276 -250 9 -39 8 -51 -3 -62 -17 -17 -224
-76 -242 -69 -7 2 -16 18 -20 35 -19 89 -131 139 -214 96 -33 -17 -41 -33 -41
-85 0 -62 33 -89 213 -181 136 -69 172 -93 222 -144 78 -79 100 -136 100 -260
0 -82 -3 -97 -33 -157 -51 -105 -147 -167 -294 -189 -133 -21 -299 15 -391 85
-83 63 -133 191 -92 236 21 23 136 60 186 60 29 0 39 -7 69 -47 50 -67 101
-95 168 -90 71 5 103 35 109 104 8 74 -18 98 -201 187 -265 128 -340 215 -338
391 2 253 234 402 526 340z m998 -16 c124 -26 236 -117 280 -227 19 -49 22
-76 23 -187 0 -112 -3 -136 -21 -176 -30 -63 -86 -123 -143 -151 l-47 -24 49
-90 c26 -49 82 -153 123 -232 l75 -142 -167 2 -168 3 -93 200 -93 200 -70 3
-70 3 0 -206 0 -205 -130 0 -130 0 -2 608 c-2 334 -1 613 1 620 4 16 505 17
583 1z m1095 -1 c5 -7 26 -69 46 -138 72 -246 259 -867 293 -974 19 -60 32
-111 30 -113 -2 -2 -70 -5 -152 -6 l-148 -2 -36 125 -35 125 -187 3 -187 2
-12 -42 c-6 -24 -21 -79 -33 -123 l-21 -80 -144 -3 c-134 -2 -143 -1 -136 15
6 16 245 850 309 1080 14 50 30 103 36 117 l10 26 179 0 c131 0 181 -3 188
-12z m1061 0 c8 -8 12 -47 12 -108 0 -61 -4 -100 -12 -108 -8 -8 -66 -12 -195
-12 l-183 0 0 -125 0 -125 178 -2 177 -3 0 -115 0 -115 -178 -3 -178 -2 3
-133 3 -132 220 -5 220 -5 7 -45 c10 -69 9 -159 -2 -181 -10 -18 -25 -19 -354
-19 -304 0 -345 2 -350 16 -8 21 -8 1219 1 1227 3 4 144 7 313 7 225 0 309 -3
318 -12z m450 -490 l2 -498 208 -2 207 -3 3 -117 c3 -115 2 -118 -20 -123 -13
-3 -167 -4 -343 -3 l-320 3 -3 623 -2 623 132 -3 133 -3 3 -497z m-2507 -864
c10 -9 21 -31 24 -48 4 -17 -5 -155 -20 -306 -37 -399 -41 -520 -21 -599 17
-65 17 -65 -6 -87 -37 -35 -62 -38 -95 -10 l-28 24 3 176 3 175 -48 -13 c-26
-8 -92 -24 -146 -37 l-99 -23 -28 -56 c-15 -30 -49 -105 -74 -165 -62 -146
-104 -181 -164 -139 -30 21 -28 43 12 122 19 37 46 96 60 130 l25 63 -22 -7
c-12 -4 -56 -20 -97 -35 -41 -16 -82 -29 -91 -29 -26 0 -51 35 -47 67 2 23 13
33 68 60 36 18 108 43 160 57 52 13 96 30 98 36 19 57 205 407 260 490 73 110
110 152 152 169 34 14 97 7 121 -15z m1074 -35 c150 -28 242 -121 252 -254 10
-129 -50 -294 -152 -417 -93 -114 -279 -237 -434 -287 -150 -49 -235 -5 -165
86 42 56 79 149 128 323 45 162 86 344 86 381 0 17 -3 17 -52 3 -29 -9 -81
-31 -116 -50 -34 -19 -65 -34 -67 -34 -8 0 -35 72 -35 94 0 57 125 117 335
160 42 8 164 6 220 -5z m-741 -25 c21 -21 21 -27 -14 -117 -27 -70 -100 -284
-100 -293 0 -2 18 9 41 25 22 17 65 35 96 41 101 21 176 -9 214 -86 29 -61 24
-177 -11 -250 -59 -122 -232 -239 -356 -239 -48 0 -69 5 -91 21 -67 50 -87
141 -58 270 58 265 127 563 137 587 6 15 20 34 32 42 27 20 91 19 110 -1z
m1526 -199 c55 -50 9 -126 -224 -364 -106 -108 -144 -152 -126 -148 73 19 246
37 325 35 l90 -3 3 -41 c5 -68 -14 -77 -178 -85 -76 -4 -194 -17 -262 -29
-137 -24 -181 -21 -204 15 -14 21 -14 27 -1 52 8 15 27 39 42 53 38 35 338
368 349 387 7 14 3 15 -30 9 -22 -4 -77 -23 -123 -42 -47 -18 -87 -32 -89 -29
-9 9 -13 100 -5 110 19 25 165 77 273 98 53 11 139 1 160 -18z"/>
<path d="M5311 7649 c-83 -45 -167 -103 -409 -286 -90 -68 -173 -123 -184
-123 -14 0 -27 17 -48 63 -24 53 -30 59 -37 42 -12 -29 -8 -245 5 -278 11 -27
13 -27 44 -14 18 8 87 49 152 91 66 42 122 76 126 76 4 0 1 -24 -7 -52 -16
-60 -11 -141 13 -228 37 -130 117 -164 202 -87 28 26 60 127 68 216 7 68 -16
215 -36 235 -14 14 -12 42 4 55 20 16 68 -42 96 -116 19 -51 21 -72 17 -168
-6 -159 -48 -250 -142 -313 -46 -31 -55 -34 -115 -30 -73 4 -135 31 -187 81
-18 17 -33 28 -33 23 0 -15 34 -73 67 -114 49 -60 97 -82 180 -82 87 0 151 29
215 97 88 96 128 207 128 363 0 106 -18 190 -55 264 -30 58 -25 68 46 91 51
17 146 17 183 0 17 -8 19 -5 13 26 -4 19 -22 63 -40 99 -60 121 -135 141 -266
69z"/>
<path d="M6260 7219 c-97 -58 -180 -174 -216 -303 -13 -44 -21 -82 -20 -84 2
-1 28 23 58 54 65 68 91 68 108 2 11 -38 -1 -132 -25 -203 -13 -38 98 90 121
140 37 79 27 140 -32 198 l-29 29 33 29 c47 42 100 41 140 -5 16 -19 32 -40
35 -48 4 -10 7 -10 16 2 28 40 -3 148 -54 188 -35 28 -89 28 -135 1z"/>
<path d="M5246 6560 c-79 -39 -89 -50 -44 -50 20 0 45 -8 57 -17 l21 -18 -20
-33 c-22 -35 -163 -133 -273 -189 -221 -111 -477 -145 -667 -89 -29 9 -55 14
-57 12 -2 -2 17 -22 42 -44 124 -109 375 -127 615 -44 153 53 333 171 434 284
52 58 56 61 80 50 14 -6 35 -26 45 -43 l20 -32 6 37 c14 73 -19 152 -75 181
-57 30 -118 28 -184 -5z"/>
<path d="M5441 5293 c-62 -31 -80 -119 -35 -172 36 -43 88 -56 133 -33 52 25
76 65 75 119 -2 87 -86 129 -173 86z m109 -69 c16 -18 4 -61 -21 -77 -44 -28
-95 25 -69 72 13 26 71 29 90 5z"/>
<path d="M6183 5126 c-233 -76 -291 -345 -114 -526 32 -32 82 -69 116 -86 53
-26 71 -29 150 -29 81 0 97 4 155 32 75 37 86 45 122 93 89 119 68 301 -49
418 -72 72 -148 105 -253 109 -53 2 -101 -2 -127 -11z m252 -111 c47 -29 104
-96 105 -123 0 -7 -11 -17 -25 -24 -21 -9 -33 -6 -92 30 -88 53 -103 59 -103
38 0 -23 34 -87 65 -125 l27 -31 -25 -11 c-33 -15 -71 6 -134 72 -26 29 -67
70 -91 92 -41 39 -42 41 -25 60 36 40 93 58 174 55 64 -3 83 -8 124 -33z
m-281 -189 c17 -18 48 -54 69 -80 50 -60 107 -90 160 -83 47 6 91 45 104 90 7
28 14 32 46 35 35 3 37 1 37 -25 0 -43 -41 -115 -79 -140 -151 -101 -368 -8
-422 181 -18 61 35 76 85 22z"/>
<path d="M4070 3356 l0 -186 88 0 c186 0 256 52 256 190 0 129 -53 169 -235
178 l-109 5 0 -187z"/>
<path d="M5285 3448 c-4 -18 -32 -123 -61 -232 -30 -110 -54 -201 -54 -203 0
-2 58 -3 129 -3 l128 0 -58 212 c-33 116 -59 220 -59 229 0 32 -18 30 -25 -3z"/>
<path d="M4324 2175 c-57 -88 -210 -375 -200 -375 8 0 230 52 233 55 5 3 32
399 28 403 -2 3 -30 -35 -61 -83z"/>
<path d="M5410 2188 c-16 -100 -119 -503 -141 -555 -14 -33 -28 -48 -64 -65
-28 -14 -45 -29 -45 -40 0 -17 3 -16 53 3 129 50 279 156 356 252 123 150 152
333 67 416 -35 34 -113 61 -178 61 l-36 0 -12 -72z"/>
<path d="M4810 1858 c-120 -60 -197 -211 -144 -286 62 -90 284 92 284 233 0
75 -54 95 -140 53z"/>
</g>
</svg>
